# AST/ASF file generated using VICON BodyLanguage
# -----------------------------------------------
:version 1.10
:name VICON
:units
  mass 1.0
  length 0.45
  angle deg
:documentation
   .ast/.asf automatically generated from VICON data using
   VICON BodyBuilder and BodyLanguage model FoxedUp or BRILLIANT.MOD
:root
   order TX TY TZ RX RY RZ
   axis XYZ
   position 0 0 0  
   orientation 0 0 0 
:bonedata
  begin
     id 1 
     name lhipjoint
     direction 0.589753 -0.68606 0.426044 
     length 2.54082 
     axis 0 0 0  XYZ
  end
  begin
     id 2 
     name lfemur
     direction 0.34202 -0.939693 0  
     length 7.04539  
     axis 0 0 20  XYZ
    dof rx ry rz
    limits (-160.0 20.0)
           (-70.0 70.0)
           (-60.0 70.0)
  end
  begin
     id 3 
     name ltibia
     direction 0.34202 -0.939693 0   
     length 7.83772   
     axis 0 0 20   XYZ
    dof rx
    limits (-10.0 170.0)
  end
  begin
     id 4 
     name lfoot
     direction 0.0596604 -0.163915 0.984669   
     length 2.39542   
     axis -90 7.62852e-016 20   XYZ
    dof rx rz
    limits (-45.0 90.0)
           (-70.0 20.0)
  end
  begin
     id 5 
     name ltoes
     direction 1.53514e-011 -4.21954e-011 1   
     length 1.2047   
     axis -90 7.62852e-016 20   XYZ
    dof rx
    limits (-90.0 20.0)
  end
  begin
     id 6 
     name rhipjoint
     direction -0.580585 -0.69168 0.429534   
     length 2.52018  
     axis 0 0 0  XYZ 
  end
  begin
     id 7 
     name rfemur
     direction -0.34202 -0.939693 0   
     length 7.0101   
     axis 0 0 -20   XYZ
    dof rx ry rz
    limits (-160.0 20.0)
           (-70.0 70.0)
           (-70.0 60.0)
  end
  begin
     id 8 
     name rtibia
     direction -0.34202 -0.939693 0   
     length 7.70628   
     axis 0 0 -20   XYZ
    dof rx
    limits (-10.0 170.0)
 end
 begin
     id 9 
     name rfoot
     direction -0.0696237 -0.19129 0.979061   
     length 2.52466  
     axis -90 -7.62852e-016 -20   XYZ
    dof rx rz
    limits (-45.0 90.0)
           (-20.0 70.0)
  end
  begin
     id 10 
     name rtoes
     direction -1.53519e-011 -4.21793e-011 1   
     length 1.266   
     axis -90 -7.62852e-016 -20   XYZ
    dof rx
    limits (-90.0 20.0)
  end
  begin
     id 11 
     name lowerback
     direction 0.00381965 0.995707 -0.0924856   
     length 2.20825   
     axis 0 0 0   XYZ
    dof rx ry rz
    limits (-20.0 45.0)
           (-30.0 30.0)
           (-30.0 30.0)
  end
  begin
     id 12 
     name upperback
     direction -0.0139043 0.999634 -0.0231929   
     length 2.21517   
     axis 0 0 0   XYZ
    dof rx ry rz
    limits (-20.0 45.0)
           (-30.0 30.0)
           (-30.0 30.0)
  end
  begin
     id 13 
     name thorax
     direction -0.0143933 0.999691 0.0202892   
     length 2.22911   
     axis 0 0 0   XYZ
    dof rx ry rz
    limits (-20.0 45.0)
           (-30.0 30.0)
           (-30.0 30.0)
  end
  begin
     id 14 
     name lowerneck
     direction -0.0251153 0.981819 0.188153   
     length 1.61782   
     axis 0 0 0   XYZ
    dof rx ry rz
    limits (-20.0 45.0)
           (-30.0 30.0)
           (-30.0 30.0)
  end
  begin
     id 15 
     name upperneck
     direction 0.0563891 0.969357 -0.239095   
     length 1.64526   
     axis 0 0 0   XYZ
    dof rx ry rz
    limits (-20.0 45.0)
           (-30.0 30.0)
           (-30.0 30.0)
  end
  begin
     id 16
     name head
     direction 0.0208328 0.99459 -0.101773  
     length 1.67436  
     axis 0 0 0   XYZ
    dof rx ry rz
    limits (-20.0 45.0)
           (-30.0 30.0)
           (-30.0 30.0)
  end
  begin
     id 17 
     name lclavicle
     direction 0.917689 0.397224 0.00772059  
     length 3.31102  
     axis 0 0 0   XYZ
    dof ry rz
    limits (-20.0 10.0)
           (0.0 20.0)
  end
  begin
     id 18 
     name lhumerus
     direction 1 -4.4896e-011 2.32308e-027   
     length 5.25537   
     axis 180 -30 -90   XYZ
    dof rx ry rz
    limits (-60.0 90.0)
           (-90.0 90.0)
           (-90.0 90.0)
  end
  begin
     id 19
     name lradius
     direction 1 -4.49005e-011 -2.04271e-027   
     length 3.38855   
     axis 180 -30 -90   XYZ
    dof rx
    limits (-10.0 170.0)
  end
  begin
     id 20
     name lwrist
     direction 1 -4.48892e-011 2.56952e-028   
     length 1.69428   
     axis -5.12785e-016 90 90   XYZ
    dof ry
    limits (-180.0 0.0)
 end
  begin
     id 21 
     name lhand
     direction 1 -4.48966e-011 5.13905e-028   
     length 0.614516   
     axis -3.27915e-016 90 90   XYZ
    dof rx rz
    limits (-90.0 90.0)
           (-45.0 45.0)
  end
  begin
     id 22 
     name lfingers
     direction 1 -4.48979e-011 1.02781e-027   
     length 0.495439   
     axis -6.5583e-016 90 90   XYZ
    dof rx
    limits (0.0 90.0)
  end
  begin
     id 23
     name lthumb
     direction 0.707107 -6.35001e-011 0.707107   
     length 0.711354   
     axis -90 45 2.85299e-015   XYZ
    dof rx rz
    limits (-45.0 45.0)
           (-45.0 45.0)
  end
  begin
     id 24 
     name rclavicle
     direction -0.938556 0.342765 -0.0403177   
     length 3.27019  
     axis 0 0 0   XYZ 
    dof ry rz
    limits (-10.0 20.0)
           (-20.0 0.0)
  end
  begin
     id 25 
     name rhumerus
     direction -1 -4.48966e-011 2.52291e-027  
     length 5.38183   
     axis 180 30 90   XYZ
    dof rx ry rz
    limits (-90.0 60.0)
           (-90.0 90.0)
           (-90.0 90.0)
  end
  begin
     id 26 
     name rradius
     direction -1 -4.4896e-011 1.5797e-027   
     length 3.16988   
     axis 180 30 90   XYZ
    dof rx
    limits (-10.0 170.0)
  end
  begin
     id 27 
     name rwrist
     direction -1 -4.48947e-011 2.56952e-028   
     length 1.58494   
     axis -5.12785e-016 -90 -90   XYZ
    dof ry
    limits (-180.0 0.0)
  end
  begin
     id 28
     name rhand
     direction -1 -4.49098e-011 5.13905e-028   
     length 0.637679   
     axis -3.27915e-016 -90 -90   XYZ
    dof rx rz
    limits (-90.0 90.0)
           (-45.0 45.0)
  end
  begin
     id 29
     name rfingers
     direction -1 -4.49026e-011 1.02781e-027   
     length 0.514113   
     axis -6.5583e-016 -90 -90   XYZ
    dof rx
    limits (0.0 90.0)
  end
  begin
     id 30
     name rthumb
     direction -0.707107 -6.3491e-011 0.707107   
     length 0.738167   
     axis -90 -45 -2.85299e-015   XYZ
    dof rx rz
    limits (-45.0 45.0)
           (-45.0 45.0)
  end
:hierarchy
  begin
    root lhipjoint rhipjoint lowerback
    lhipjoint lfemur
    lfemur ltibia
    ltibia lfoot
    lfoot ltoes
    rhipjoint rfemur
    rfemur rtibia
    rtibia rfoot
    rfoot rtoes
    lowerback upperback
    upperback thorax
    thorax lowerneck lclavicle rclavicle
    lowerneck upperneck
    upperneck head
    lclavicle lhumerus
    lhumerus lradius
    lradius lwrist
    lwrist lhand lthumb
    lhand lfingers
    rclavicle rhumerus
    rhumerus rradius
    rradius rwrist
    rwrist rhand rthumb
    rhand rfingers
  end

#!OML:ASF H:\Swim\Project 1\Capture day 1\Session 1\swimmer.ASF
:FULLY-SPECIFIED
:DEGREES
400
root 6.6185 16.7944 0.28604 24.0189 -14.072 -11.5886
lowerback 17.6811 2.83989 -0.195911
upperback 8.80213 3.43689 -3.60449
thorax -0.24549 1.73309 -4.2925
lowerneck -27.9798 0.00845853 -5.13171
upperneck 23.306 -0.438114 8.86169
head 12.3831 0.581152 4.19223
rclavicle 2.70347e-014 -3.18055e-015
rhumerus 32.0188 35.5176 -62.0444
rradius 33.5149
rwrist -3.3004
rhand -17.7512 7.42578
rfingers 7.12502
rthumb 8.51047 -22.3827
lclavicle 2.70347e-014 -3.18055e-015
lhumerus 23.8054 -11.2892 56.6544
lradius 34.7559
lwrist -10.0323
lhand -27.6146 14.802
lfingers 7.12502
lthumb -1.01364 44.7793
rfemur -16.5742 2.01335 24.3704
rtibia 42.2999
rfoot -11.1626 -4.29915
rtoes -14.5707
lfemur -57.1856 1.87399 -3.63162
ltibia 33.589
lfoot 7.13881 4.8799
ltoes 8.67977
401
root 6.64286 16.8117 0.402721 24.6764 -13.8358 -11.8682
lowerback 18.0002 2.81013 -0.148876
upperback 8.89316 3.39456 -3.61145
thorax -0.311455 1.71218 -4.33523
lowerneck -27.9755 -0.0860509 -5.23356
upperneck 22.9251 -0.549902 9.01391
head 12.2438 0.543857 4.23258
rclavicle 4.29375e-014 -3.33958e-014
rhumerus 33.1751 35.2363 -61.2534
rradius 33.2126
rwrist -3.14421
rhand -17.6721 7.50178
rfingers 7.12502
rthumb 8.58675 -22.3036
lclavicle 4.29375e-014 -3.33958e-014
lhumerus 25.1485 -10.7857 56.649
lradius 33.7626
lwrist -10.6422
lhand -27.1413 14.8447
lfingers 7.12502
lthumb -0.556533 44.8237
rfemur -16.7861 1.73766 24.655
rtibia 41.621
rfoot -11.1786 -5.31405
rtoes -14.1465
lfemur -57.8297 2.11704 -3.70079
ltibia 34.1578
lfoot 6.77288 4.53397
ltoes 8.9363
402
root 6.66733 16.8301 0.517815 25.3324 -13.6429 -12.14
lowerback 18.317 2.7894 -0.116034
upperback 8.95978 3.36096 -3.63374
thorax -0.401078 1.69502 -4.38823
lowerneck -27.9529 -0.172531 -5.31031
upperneck 22.5336 -0.658985 9.16237
head 12.098 0.508817 4.26691
rclavicle -2.38542e-014 -4.77083e-015
rhumerus 34.2714 34.9401 -60.5244
rradius 32.9053
rwrist -2.86361
rhand -17.5677 7.60642
rfingers 7.12502
rthumb 8.68748 -22.1948
lclavicle -2.38542e-014 -4.77083e-015
lhumerus 26.3795 -10.3058 56.6608
lradius 32.8307
lwrist -11.2538
lhand -26.7249 14.7656
lfingers 7.12502
lthumb -0.154349 44.7453
rfemur -16.9388 1.53234 24.9062
rtibia 40.7758
rfoot -11.1471 -6.04312
rtoes -13.7407
lfemur -58.4219 2.29097 -3.71008
ltibia 34.6735
lfoot 6.37534 4.33251
ltoes 9.14987
403
root 6.69143 16.8496 0.631542 25.9827 -13.4905 -12.3874
lowerback 18.6272 2.77792 -0.112268
upperback 9.00615 3.3339 -3.67528
thorax -0.508566 1.68023 -4.44661
lowerneck -27.9123 -0.255657 -5.37333
upperneck 22.1268 -0.770387 9.32006
head 11.9446 0.474411 4.30115
rclavicle -1.90833e-014 1.43125e-014
rhumerus 35.3294 34.6391 -59.8263
rradius 32.6005
rwrist -2.52435
rhand -17.4534 7.72985
rfingers 7.12502
rthumb 8.79786 -22.0668
lclavicle -1.90833e-014 1.43125e-014
lhumerus 27.5032 -9.85241 56.6906
lradius 31.9683
lwrist -11.8202
lhand -26.369 14.619
lfingers 7.12502
lthumb 0.18937 44.5986
rfemur -17.0433 1.40202 25.1091
rtibia 39.7958
rfoot -11.0661 -6.50148
rtoes -13.4462
lfemur -58.9631 2.41777 -3.69529
ltibia 35.1325
lfoot 5.96348 4.22797
ltoes 9.33119
404
root 6.71431 16.8701 0.743707 26.6366 -13.3719 -12.6063
lowerback 18.9171 2.77454 -0.14614
upperback 9.03659 3.3107 -3.73591
thorax -0.623167 1.66643 -4.50405
lowerneck -27.8739 -0.340649 -5.4339
upperneck 21.7147 -0.889583 9.4986
head 11.792 0.439022 4.34163
rclavicle -9.70069e-014 2.06736e-014
rhumerus 36.3296 34.3117 -59.1911
rradius 32.3139
rwrist -2.12791
rhand -17.3311 7.8602
rfingers 7.12502
rthumb 8.91588 -21.9314
lclavicle -9.70069e-014 2.06736e-014
lhumerus 28.5292 -9.424 56.7336
lradius 31.1865
lwrist -12.3093
lhand -26.0772 14.4915
lfingers 7.12502
lthumb 0.471153 44.4707
rfemur -17.1224 1.35143 25.2656
rtibia 38.7135
rfoot -10.9373 -6.73349
rtoes -13.2881
lfemur -59.4728 2.52944 -3.6829
ltibia 35.5393
lfoot 5.55186 4.16652
ltoes 9.48204
405
root 6.73553 16.8908 0.85462 27.291 -13.2673 -12.784
lowerback 19.172 2.77342 -0.21689
upperback 9.06279 3.28444 -3.81512
thorax -0.725298 1.65067 -4.55798
lowerneck -27.8434 -0.430112 -5.49533
upperneck 21.2971 -1.01882 9.69987
head 11.6414 0.401605 4.38929
rclavicle 6.83819e-014 -1.04958e-013
rhumerus 37.2851 33.9539 -58.606
rradius 32.0501
rwrist -1.71255
rhand -17.2144 7.99381
rfingers 7.12502
rthumb 9.0285 -21.793
lclavicle 6.83819e-014 -1.04958e-013
lhumerus 29.4768 -9.02822 56.7766
lradius 30.5098
lwrist -12.679
lhand -25.7998 14.5054
lfingers 7.12502
lthumb 0.739104 44.4838
rfemur -17.1843 1.36538 25.3737
rtibia 37.5629
rfoot -10.7808 -6.79513
rtoes -13.2507
lfemur -59.9711 2.63275 -3.70026
ltibia 35.9091
lfoot 5.14622 4.10872
ltoes 9.61132
406
root 6.75472 16.9111 0.9645 27.9497 -13.1688 -12.9274
lowerback 19.3923 2.77219 -0.325804
upperback 9.08374 3.25204 -3.9022
thorax -0.817446 1.63114 -4.59566
lowerneck -27.8338 -0.524436 -5.57214
upperneck 20.8909 -1.15283 9.92343
head 11.5012 0.363468 4.44824
rclavicle -2.54444e-014 3.81667e-014
rhumerus 38.2108 33.5899 -58.0385
rradius 31.8199
rwrist -1.32852
rhand -17.1139 8.10551
rfingers 7.12502
rthumb 9.12543 -21.6771
lclavicle -2.54444e-014 3.81667e-014
lhumerus 30.3353 -8.67492 56.8169
lradius 29.915
lwrist -13.0375
lhand -25.6227 14.6889
lfingers 7.12502
lthumb 0.910167 44.6667
rfemur -17.2381 1.43382 25.4444
rtibia 36.3726
rfoot -10.6115 -6.74574
rtoes -13.2816
lfemur -60.4739 2.73845 -3.74913
ltibia 36.2593
lfoot 4.73955 4.04296
ltoes 9.76415
407
root 6.77167 16.9301 1.07369 28.6165 -13.0726 -13.0422
lowerback 19.5782 2.77317 -0.468839
upperback 9.09461 3.21714 -3.9919
thorax -0.904806 1.60961 -4.61454
lowerneck -27.8386 -0.626269 -5.66738
upperneck 20.5046 -1.29366 10.1649
head 11.3736 0.322817 4.51711
rclavicle 1.90833e-014 -3.33958e-014
rhumerus 39.0896 33.2235 -57.4918
rradius 31.6297
rwrist -0.99926
rhand -17.0392 8.1883
rfingers 7.12502
rthumb 9.19748 -21.5911
lclavicle 1.90833e-014 -3.33958e-014
lhumerus 31.1063 -8.35013 56.8706
lradius 29.425
lwrist -13.2557
lhand -25.4237 15.0135
lfingers 7.12502
lthumb 1.10238 44.9904
rfemur -17.292 1.5516 25.4855
rtibia 35.17
rfoot -10.4455 -6.63765
rtoes -13.3608
lfemur -60.9948 2.85437 -3.83152
ltibia 36.6065
lfoot 4.32793 3.95689
ltoes 9.93315
408
root 6.78662 16.9474 1.18284 29.2856 -12.9666 -13.1379
lowerback 19.7298 2.79092 -0.605794
upperback 9.0889 3.20496 -4.09085
thorax -0.989771 1.59992 -4.64979
lowerneck -27.7929 -0.745453 -5.74081
upperneck 20.1165 -1.4689 10.4097
head 11.2411 0.267043 4.57659
rclavicle 7.31528e-014 -5.96354e-014
rhumerus 39.8437 32.8032 -57.018
rradius 31.4733
rwrist -0.731879
rhand -16.9931 8.24958
rfingers 7.12502
rthumb 9.242 -21.5279
lclavicle 7.31528e-014 -5.96354e-014
lhumerus 31.8081 -8.13345 56.9292
lradius 29.0221
lwrist -13.3362
lhand -25.2418 15.375
lfingers 7.12502
lthumb 1.27806 45.3509
rfemur -17.3398 1.70155 25.5108
rtibia 33.9741
rfoot -10.2897 -6.50935
rtoes -13.4378
lfemur -61.5337 2.97176 -3.93573
ltibia 36.9598
lfoot 3.91136 3.85646
ltoes 10.1354
409
root 6.80012 16.9626 1.29137 29.9621 -12.8212 -13.2096
lowerback 19.8512 2.81538 -0.716291
upperback 9.06074 3.20647 -4.19125
thorax -1.08085 1.59797 -4.7034
lowerneck -27.6908 -0.884097 -5.79173
upperneck 19.7335 -1.67928 10.6463
head 11.1053 0.193909 4.6223
rclavicle -3.02153e-014 7.95139e-016
rhumerus 40.4767 32.3396 -56.5902
rradius 31.3521
rwrist -0.555171
rhand -16.9744 8.28103
rfingers 7.12502
rthumb 9.26 -21.4956
lclavicle -3.02153e-014 7.95139e-016
lhumerus 32.4419 -8.01721 57.0119
lradius 28.6816
lwrist -13.2745
lhand -25.0678 15.6411
lfingers 7.12502
lthumb 1.44612 45.6159
rfemur -17.3954 1.84764 25.5295
rtibia 32.8029
rfoot -10.1425 -6.38367
rtoes -13.4952
lfemur -62.1103 3.07128 -4.06007
ltibia 37.3207
lfoot 3.49929 3.73404
ltoes 10.3715
410
root 6.81279 16.9759 1.39923 30.6371 -12.6256 -13.2534
lowerback 19.9536 2.84098 -0.78522
upperback 9.01345 3.21706 -4.29273
thorax -1.1798 1.60188 -4.78329
lowerneck -27.5358 -1.04118 -5.81536
upperneck 19.3549 -1.92336 10.8685
head 10.9663 0.103418 4.65158
rclavicle 1.59028e-014 -5.48646e-014
rhumerus 40.9591 31.8178 -56.2492
rradius 31.264
rwrist -0.430688
rhand -16.9759 8.30126
rfingers 7.12502
rthumb 9.25861 -21.4755
lclavicle 1.59028e-014 -5.48646e-014
lhumerus 33.0097 -7.99519 57.1261
lradius 28.3772
lwrist -13.1388
lhand -24.932 15.7128
lfingers 7.12502
lthumb 1.57728 45.6867
rfemur -17.4548 1.96959 25.5432
rtibia 31.6664
rfoot -9.99744 -6.27525
rtoes -13.5425
lfemur -62.7173 3.13439 -4.20045
ltibia 37.6824
lfoot 3.10046 3.59227
ltoes 10.6144
